<?xml version="1.0" encoding="UTF-8" standalone="no"?>
<!-- Created with Inkscape (http://www.inkscape.org/) -->

<svg
   xmlns:dc="http://purl.org/dc/elements/1.1/"
   xmlns:cc="http://creativecommons.org/ns#"
   xmlns:rdf="http://www.w3.org/1999/02/22-rdf-syntax-ns#"
   xmlns:svg="http://www.w3.org/2000/svg"
   xmlns="http://www.w3.org/2000/svg"
   xmlns:sodipodi="http://sodipodi.sourceforge.net/DTD/sodipodi-0.dtd"
   xmlns:inkscape="http://www.inkscape.org/namespaces/inkscape"
   width="212.42111"
   height="33.29546"
   viewBox="0 0 56.203086 8.8094242"
   version="1.1"
   id="svg5474"
   inkscape:version="0.92.0 r15299"
   sodipodi:docname="software ag.svg">
  <defs
     id="defs5468">
    <clipPath
       id="clipPath5442"
       clipPathUnits="userSpaceOnUse">
      <path
         inkscape:connector-curvature="0"
         id="path5440"
         d="M 0,0 H 1585.64 V 242.223 H 0 Z" />
    </clipPath>
  </defs>
  <sodipodi:namedview
     id="base"
     pagecolor="#ffffff"
     bordercolor="#666666"
     borderopacity="1.0"
     inkscape:pageopacity="0.0"
     inkscape:pageshadow="2"
     inkscape:zoom="2.534471"
     inkscape:cx="125.7122"
     inkscape:cy="-22.154362"
     inkscape:document-units="mm"
     inkscape:current-layer="layer1"
     showgrid="false"
     fit-margin-top="0"
     fit-margin-left="0"
     fit-margin-right="0"
     fit-margin-bottom="0"
     units="px"
     inkscape:window-width="1280"
     inkscape:window-height="744"
     inkscape:window-x="-4"
     inkscape:window-y="-4"
     inkscape:window-maximized="1" />
  <metadata
     id="metadata5471">
    <rdf:RDF>
      <cc:Work
         rdf:about="">
        <dc:format>image/svg+xml</dc:format>
        <dc:type
           rdf:resource="http://purl.org/dc/dcmitype/StillImage" />
        <dc:title></dc:title>
      </cc:Work>
    </rdf:RDF>
  </metadata>
  <g
     inkscape:label="Layer 1"
     inkscape:groupmode="layer"
     id="layer1"
     transform="translate(-68.036265,-226.6954)">
    <path
       inkscape:connector-curvature="0"
       id="path5444"
       style="fill:#089acd;fill-opacity:1;fill-rule:nonzero;stroke:none;stroke-width:0.03527778"
       d="m 71.585471,230.18187 v 1.48428 c 0,1.03699 -0.420991,1.64264 -1.422549,1.64264 H 69.43463 l -0.211529,1.99264 h 1.045379 c 1.862001,0 3.328498,-1.35185 3.328498,-3.48574 v -1.63382 z m 49.500509,0.01 h -0.83326 c -0.0183,0 -0.0261,0.0165 -0.0346,0.0262 l -0.69885,2.08097 c 0,0 -0.009,0.0269 -0.009,0.0351 0,0.009 0.009,0.0172 0.0261,0.0172 h 0.5133 c 0.0187,0 0.0268,-0.0172 0.0356,-0.0351 l 0.15839,-0.5967 h 0.8502 l 0.1584,0.5967 c 0.008,0.0179 0.019,0.0351 0.0363,0.0351 h 0.48296 c 0.0166,0 0.0261,-0.008 0.0261,-0.0172 0,-0.008 -0.01,-0.0351 -0.01,-0.0351 l -0.6664,-2.08097 c -0.009,-0.01 -0.0279,-0.0262 -0.036,-0.0262 m 2.5206,1.32581 v 0.51813 c 0,0 -0.14922,0.009 -0.28151,0.009 -0.41205,0 -0.63183,-0.11507 -0.63183,-0.75573 0,-0.66653 0.23742,-0.77265 0.69321,-0.77265 0.19403,0 0.39652,0.0347 0.52881,0.0613 0.007,0.008 0.0258,0.008 0.043,0.008 0,0 0.0434,0.009 0.0699,0.009 0.0265,0 0.0346,-0.0168 0.0448,-0.0602 l 0.0254,-0.14125 c 0.009,-0.0255 0.009,-0.0606 0.009,-0.0696 0,-0.0266 -0.0258,-0.0351 -0.0444,-0.0531 -0.0699,-0.0262 -0.37712,-0.12333 -0.80715,-0.12333 -0.77258,0 -1.0982,0.29972 -1.0982,1.12448 0,0.80767 0.26353,1.11566 1.15076,1.11566 0.21943,0 0.48296,-0.0358 0.61454,-0.0613 h -0.007 c 0.15769,-0.0434 0.19191,-0.10542 0.19191,-0.25494 v -0.89656 c 0,-0.0262 -0.009,-0.0342 -0.0342,-0.0342 h -0.81738 c -0.0272,0 -0.0346,0.008 -0.0346,0.0342 v 0.26392 c 0,0.0353 0.0257,0.0442 0.0346,0.0442 z m -3.02083,-0.99303 h 0.16686 l 0.24659,0.85164 h -0.65899 z m -37.899487,2.19673 c 0,-1.12447 0.043,-1.58117 0.815093,-1.58117 0.773783,0 0.81788,0.4567 0.81788,1.58117 0,1.11484 -0.0441,1.56201 -0.81788,1.56201 -0.77209,0 -0.815093,-0.44717 -0.815093,-1.56201 m -1.695662,0 c 0,1.49173 0.298344,2.64308 2.510755,2.64308 2.213433,0 2.511778,-1.15135 2.511778,-2.64308 0,-1.50219 -0.298345,-2.6618 -2.511778,-2.6618 -2.212411,0 -2.510755,1.15961 -2.510755,2.6618 m 31.912349,-1.66136 v -0.78066 c 0,-0.15021 -0.0716,-0.2019 -0.20285,-0.2019 h -0.16721 c -0.60572,0 -1.25519,0.0696 -1.72015,0.17502 -0.56303,0.12333 -0.86078,0.22877 -0.86078,0.56225 v 4.30375 c 0,0.0696 0.0526,0.12334 0.12348,0.12334 h 1.41252 c 0.0702,0 0.12347,-0.0538 0.12347,-0.12334 v -3.77666 c 0.0882,-0.0176 0.55351,-0.0789 1.11549,-0.0789 0.17603,0 0.17603,-0.0967 0.17603,-0.20285 m -11.31965,2.61772 c 0,0.51814 -0.31764,0.67593 -0.72002,0.67593 -0.31627,0 -0.69455,-0.0971 -0.69455,-0.0971 v -3.95137 c 0,-0.0703 -0.0523,-0.12295 -0.12262,-0.12295 h -1.413621 c -0.06957,0 -0.122907,0.0526 -0.122907,0.12295 v 3.37259 c 0,0.51814 -0.21082,0.67593 -0.597112,0.67593 -0.343394,0 -0.825712,-0.0875 -0.825712,-0.0875 v -3.96101 c 0,-0.0703 -0.05306,-0.12295 -0.122378,-0.12295 h -4.040259 v -1.5627 c 0,-0.11437 -0.06078,-0.16672 -0.157938,-0.16672 -0.01679,0 -0.06131,0.009 -0.104705,0.0168 l -1.212956,0.21128 c -0.1137,0.0262 -0.174731,0.10499 -0.174731,0.24596 v 1.25539 h -2.266209 v -0.55301 c 0,-0.18355 0.02688,-0.30688 0.123084,-0.39508 0.106363,-0.0879 0.237279,-0.11341 0.466055,-0.11341 0.148555,0 0.368335,0.0255 0.482318,0.0431 0.01764,0 0.03581,0.009 0.06198,0.009 0.0441,0.008 0.09687,0.0179 0.121955,0.0179 0.06244,0 0.08036,-0.0445 0.08819,-0.12333 l 0.106539,-0.7028 c 0,0 0.0083,-0.0531 0.0083,-0.0786 0,-0.07 -0.0266,-0.11437 -0.09687,-0.14054 -0.12319,-0.0356 -0.57905,-0.16743 -1.326339,-0.16743 -1.167201,0 -1.703282,0.52708 -1.703282,1.57233 v 0.63182 h -0.746901 c -0.06985,0 -0.122484,0.0526 -0.122484,0.12295 v 0.90508 c 0,0.0703 0.05263,0.12334 0.122484,0.12334 h 0.746901 v 3.78491 c 0,0.0696 0.05239,0.12334 0.122802,0.12334 h 1.423106 c 0.06957,0 0.122202,-0.0538 0.122202,-0.12334 v -3.78491 h 2.266209 v 2.35313 c 0,1.20303 0.60632,1.63366 1.800825,1.63366 0.675217,0 1.124197,-0.14124 1.228231,-0.17638 0.09606,-0.0351 0.132292,-0.0792 0.132292,-0.15779 0,-0.0345 -0.0084,-0.0786 -0.0084,-0.0786 l -0.132574,-0.69453 c -0.01697,-0.0792 -0.05277,-0.10473 -0.105163,-0.10473 -0.0078,0 -0.03581,0 -0.06985,0.008 -0.0085,0 -0.02646,0.009 -0.04382,0.009 -0.114935,0.0172 -0.317218,0.0441 -0.553967,0.0441 -0.509482,0 -0.597253,-0.23771 -0.597253,-0.58911 v -2.23877 h 2.502782 v 3.29366 c 0,0.32384 0.299332,0.42926 0.843633,0.55259 0.421146,0.0882 1.035615,0.18466 1.502058,0.18466 0.57919,0 1.175878,-0.10542 1.61618,-0.43959 0.594607,0.34313 1.254975,0.43959 1.876885,0.43959 1.17782,0 1.97721,-0.28112 1.97721,-1.45796 v -3.60962 c 0,-0.0703 -0.0528,-0.12295 -0.1228,-0.12295 h -1.41411 c -0.0703,0 -0.12266,0.0526 -0.12266,0.12295 z m 13.32167,-1.24712 v -0.0875 c 0,-0.13987 0.008,-0.46577 0.0434,-0.66696 0.0695,-0.33433 0.25435,-0.55344 0.76411,-0.55344 0.47414,0 0.69356,0.18397 0.78141,0.49142 0.0526,0.18464 0.0526,0.483 0.0526,0.67593 v 0.14056 z m -7.80733,1.85277 c -0.0522,0.0179 -0.33373,0.0882 -0.69356,0.0882 -0.33373,0 -0.82515,-0.0703 -0.82515,-0.68489 0,-0.55328 0.28117,-0.62356 0.64876,-0.68488 l 0.86995,-0.14056 z m -36.917079,-2.2214 v -1.68618 c 0,-1.0535 0.440285,-1.55413 1.423102,-1.55413 h 0.710791 l 0.211102,-1.99404 h -1.115508 c -1.94951,0 -3.240733,1.44046 -3.240733,3.39866 v 1.83569 z m 7.719071,1.2113 c 0.456565,0.0889 0.658707,0.14125 0.658707,0.54432 0,0.3955 -0.35112,0.49265 -0.676593,0.49265 -0.500238,0 -1.097209,-0.14056 -1.325703,-0.20188 h 0.0083 c -0.0083,0 -0.01792,-0.008 -0.02593,-0.008 -0.03542,-0.01 -0.07027,-0.0179 -0.09603,-0.0179 -0.0441,0 -0.08819,0.0345 -0.09825,0.12264 l -0.103646,0.62356 c -0.0099,0.0441 -0.01831,0.10474 -0.01831,0.13092 0,0.062 0.02589,0.0882 0.09617,0.12264 0.193887,0.0806 0.983933,0.27354 1.801107,0.27354 1.20262,0 2.115573,-0.42236 2.115573,-1.67776 0,-1.20302 -0.711376,-1.43109 -1.395271,-1.55443 l -0.141958,-0.0262 c -0.3937,-0.0703 -0.737094,-0.14056 -0.737094,-0.54502 0,-0.40389 0.412997,-0.45558 0.703051,-0.45558 0.377613,0 0.780944,0.0696 0.983933,0.1137 0.113418,0.0269 0.140158,0.0269 0.175013,0.0269 0.04452,0 0.105022,-0.0448 0.12266,-0.0889 0.03542,-0.21086 0.08844,-0.42969 0.123332,-0.64079 0,0 0.0083,-0.0441 0.0083,-0.0703 0,-0.10474 -0.04315,-0.14884 -0.183551,-0.18468 -0.272309,-0.0703 -0.81661,-0.1929 -1.493096,-0.1929 -0.842116,0 -2.116138,0.14055 -2.116138,1.6069 0,1.28228 0.859896,1.46694 1.518602,1.58958 z m 30.849718,-1.6943 c 0,-0.54486 -0.16793,-0.96615 -0.63324,-1.22936 -0.34184,-0.1929 -0.82444,-0.29005 -1.50248,-0.29005 -1.05234,0 -1.9932,0.28109 -2.17629,0.35966 -0.0614,0.0276 -0.12347,0.062 -0.12347,0.13186 v 0.0349 c 0,0.009 0.009,0.0179 0.009,0.0269 l 0.16651,0.72898 c 0.009,0.052 0.0438,0.0703 0.0882,0.0703 0.0176,0 0.0427,0 0.0705,-0.009 0.21061,-0.0614 0.98284,-0.26296 1.58927,-0.26296 0.29845,0 0.52634,0.0259 0.64876,0.0872 0.1852,0.0882 0.21131,0.24613 0.21131,0.50038 v 0.21979 l -1.65982,0.26389 c -0.63147,0.0958 -1.44886,0.28939 -1.44886,1.49173 0,1.49448 1.19345,1.66122 2.38831,1.66122 0.57114,0 1.02799,-0.0358 1.41393,-0.12264 0.63253,-0.15021 0.95815,-0.27285 0.95815,-1.0108 z m 4.46017,1.16789 c 0,1.96784 0.88723,2.61758 2.77495,2.61758 0.84384,0 1.4926,-0.21153 1.80057,-0.31695 0.096,-0.0345 0.13229,-0.10542 0.13229,-0.16674 0,-0.0179 0,-0.0344 -0.009,-0.0703 l -0.14076,-0.57947 v 0.008 c -0.0353,-0.12264 -0.0885,-0.14883 -0.1584,-0.14883 -0.0356,0 -0.0797,0.01 -0.11465,0.0179 h 0.01 c -0.24694,0.0703 -0.70273,0.20188 -1.22096,0.20188 -0.43039,0 -0.7299,-0.0351 -0.94968,-0.1502 -0.25329,-0.13092 -0.41204,-0.39412 -0.41204,-0.78962 h 2.98697 c 0.20108,0 0.23671,-0.14056 0.23671,-0.27285 v -0.46509 c 0,-0.87782 -0.14993,-1.5536 -0.50941,-1.97599 -0.37853,-0.36819 -1.01036,-0.59693 -1.92335,-0.59693 -1.86231,0 -2.50295,0.72856 -2.50295,2.6873" />
  </g>
</svg>
